<svg xmlns="http://www.w3.org/2000/svg" xmlns:xlink="http://www.w3.org/1999/xlink" width="500" zoomAndPan="magnify" viewBox="0 0 375 374.999991" height="500" preserveAspectRatio="xMidYMid meet" version="1.0"><defs><g/></defs><path fill="#000000" d="M 64.335938 168.519531 C 62.949219 170.289062 61.796875 171.761719 60.644531 173.230469 C 60.476562 173.140625 60.304688 173.050781 60.132812 172.960938 C 60.839844 171.160156 61.6875 169.402344 62.195312 167.550781 C 62.453125 166.617188 62.398438 165.371094 61.972656 164.519531 C 60.765625 162.101562 59.207031 159.863281 57.96875 157.460938 C 57.222656 156.015625 56.355469 155.820312 54.894531 156.253906 C 52.160156 157.0625 49.375 157.6875 46.609375 158.390625 C 46.519531 158.210938 46.429688 158.027344 46.335938 157.847656 C 49.101562 156.117188 51.867188 154.386719 54.960938 152.449219 C 53.734375 150.3125 52.953125 147.683594 51.195312 146.261719 C 49.476562 144.875 46.761719 144.71875 44.351562 143.984375 C 45.855469 143.472656 47.382812 142.953125 49.132812 142.355469 C 47.410156 139.386719 45.785156 136.660156 44.234375 133.894531 C 42.300781 130.457031 43.664062 128.128906 47.640625 128.128906 C 69.027344 128.109375 90.417969 128.109375 111.800781 128.128906 C 115.546875 128.128906 116.898438 130.558594 115.035156 133.828125 C 113.347656 136.789062 111.648438 139.746094 109.808594 142.949219 C 111.414062 143.476562 112.808594 143.9375 114.910156 144.628906 C 113.824219 144.8125 113.433594 144.898438 113.046875 144.9375 C 111.496094 145.097656 109.367188 144.671875 108.519531 145.519531 C 106.882812 147.152344 105.894531 149.46875 104.835938 151.601562 C 104.664062 151.945312 105.375 152.960938 105.910156 153.375 C 108.476562 155.367188 111.121094 157.265625 113.535156 159.628906 C 110.398438 158.664062 107.234375 157.777344 104.132812 156.710938 C 102.675781 156.207031 101.847656 156.386719 101.09375 157.839844 C 99.699219 160.519531 98.199219 163.164062 96.523438 165.679688 C 95.347656 167.445312 95.035156 169.074219 95.976562 170.992188 C 96.441406 171.9375 96.695312 172.988281 96.578125 174.195312 C 95.707031 173.007812 94.835938 171.820312 93.820312 170.4375 C 90.441406 176.230469 80.136719 195.285156 80.324219 199.914062 C 80.070312 199.902344 79.820312 199.894531 79.5625 199.886719 C 79.339844 197.851562 68.160156 175.105469 64.335938 168.519531 Z M 82.496094 152.652344 C 82.730469 152.574219 82.964844 152.496094 83.199219 152.421875 C 86.6875 157.628906 90.171875 162.835938 93.664062 168.042969 C 93.738281 168 93.8125 167.953125 93.886719 167.910156 C 92.050781 162.410156 90.210938 156.910156 88.171875 150.792969 C 95.269531 152.949219 101.550781 154.855469 107.832031 156.765625 C 107.898438 156.597656 107.960938 156.429688 108.027344 156.265625 C 102.96875 152.5 97.910156 148.734375 92.851562 144.96875 C 92.933594 144.71875 93.015625 144.46875 93.101562 144.21875 C 98.058594 144.21875 103.019531 144.21875 107.976562 144.21875 C 108.003906 143.972656 108.03125 143.726562 108.058594 143.484375 C 101.777344 141.753906 95.492188 140.023438 89.207031 138.296875 C 89.15625 138.460938 92.441406 141.390625 94.136719 142.691406 C 94.003906 142.921875 93.871094 143.152344 93.738281 143.378906 C 90.914062 142.597656 88.089844 141.8125 84.9375 140.9375 C 85.859375 143.910156 86.640625 146.421875 87.417969 148.929688 C 87.148438 149.066406 86.882812 149.203125 86.613281 149.339844 C 85.117188 147.105469 83.617188 144.875 81.902344 142.316406 C 81.25 146.496094 80.671875 150.1875 80.097656 153.875 C 79.765625 153.839844 79.433594 153.808594 79.101562 153.773438 C 78.738281 149.945312 78.375 146.121094 77.976562 141.90625 C 75.804688 144.46875 73.875 146.746094 71.945312 149.023438 C 71.695312 148.859375 71.445312 148.699219 71.195312 148.53125 C 72.25 146.214844 73.300781 143.894531 74.566406 141.105469 C 71.507812 141.796875 68.9375 142.378906 66.371094 142.957031 C 66.25 142.734375 66.128906 142.507812 66.007812 142.285156 C 67.503906 140.910156 68.996094 139.539062 70.488281 138.164062 C 67.210938 138.617188 63.523438 139.316406 59.554688 140.386719 C 55.539062 141.472656 51.96875 142.738281 48.878906 144.003906 C 54.40625 144.808594 59.933594 145.613281 65.457031 146.417969 C 65.515625 146.625 65.570312 146.835938 65.628906 147.042969 C 61.117188 149.859375 56.601562 152.671875 52.089844 155.484375 C 52.152344 155.617188 52.210938 155.753906 52.273438 155.886719 C 57.859375 154.496094 63.449219 153.105469 69.03125 151.714844 C 69.21875 151.886719 69.40625 152.058594 69.59375 152.226562 C 67.613281 157.175781 65.632812 162.125 63.648438 167.070312 C 63.753906 167.113281 63.859375 167.15625 63.960938 167.199219 C 67.871094 162.148438 71.78125 157.097656 75.695312 152.046875 C 75.925781 152.113281 76.160156 152.175781 76.394531 152.238281 C 77.4375 164.332031 78.480469 176.417969 79.523438 188.511719 C 79.652344 188.5 79.785156 188.488281 79.914062 188.480469 C 80.777344 176.535156 81.636719 164.59375 82.496094 152.652344 Z M 82.496094 152.652344 " fill-opacity="1" fill-rule="nonzero"/><path fill="#f3b900" d="M 82.496094 152.652344 C 81.636719 164.59375 80.777344 176.539062 79.914062 188.484375 C 79.785156 188.492188 79.652344 188.503906 79.523438 188.511719 C 78.480469 176.421875 77.4375 164.332031 76.394531 152.242188 C 76.160156 152.175781 75.925781 152.113281 75.695312 152.050781 C 71.78125 157.097656 67.871094 162.152344 63.960938 167.203125 C 63.859375 167.160156 63.753906 167.117188 63.648438 167.074219 C 65.632812 162.125 67.613281 157.175781 69.59375 152.230469 C 69.40625 152.058594 69.21875 151.890625 69.03125 151.71875 C 63.449219 153.109375 57.859375 154.5 52.273438 155.890625 C 52.210938 155.757812 52.152344 155.621094 52.089844 155.488281 C 56.601562 152.675781 61.117188 149.859375 65.628906 147.046875 C 65.570312 146.835938 65.515625 146.628906 65.457031 146.417969 C 59.933594 145.617188 54.40625 144.8125 48.878906 144.007812 C 51.96875 142.738281 55.539062 141.472656 59.554688 140.390625 C 63.527344 139.320312 67.210938 138.621094 70.488281 138.164062 C 68.996094 139.539062 67.503906 140.914062 66.007812 142.289062 C 66.128906 142.511719 66.25 142.738281 66.371094 142.960938 C 68.9375 142.378906 71.507812 141.800781 74.566406 141.109375 C 73.300781 143.898438 72.246094 146.214844 71.195312 148.535156 C 71.445312 148.699219 71.695312 148.863281 71.945312 149.027344 C 73.875 146.75 75.804688 144.46875 77.976562 141.910156 C 78.375 146.125 78.742188 149.949219 79.101562 153.773438 C 79.433594 153.808594 79.765625 153.84375 80.097656 153.878906 C 80.671875 150.1875 81.25 146.5 81.902344 142.320312 C 83.617188 144.875 85.117188 147.109375 86.613281 149.339844 C 86.882812 149.207031 87.148438 149.066406 87.417969 148.933594 C 86.640625 146.421875 85.859375 143.910156 84.9375 140.941406 C 88.089844 141.816406 90.914062 142.597656 93.738281 143.382812 C 93.871094 143.152344 94.003906 142.921875 94.136719 142.695312 C 92.441406 141.394531 89.15625 138.460938 89.207031 138.296875 C 95.492188 140.027344 101.777344 141.757812 108.058594 143.484375 C 108.03125 143.730469 108.003906 143.976562 107.976562 144.21875 C 103.015625 144.21875 98.058594 144.21875 93.101562 144.21875 C 93.015625 144.46875 92.933594 144.71875 92.851562 144.972656 C 97.910156 148.734375 102.96875 152.503906 108.027344 156.265625 C 107.960938 156.433594 107.898438 156.597656 107.832031 156.765625 C 101.550781 154.859375 95.269531 152.953125 88.171875 150.796875 C 90.214844 156.910156 92.050781 162.410156 93.886719 167.914062 C 93.808594 167.957031 93.734375 168.003906 93.664062 168.046875 C 89.941406 162.914062 86.21875 157.78125 82.496094 152.652344 Z M 82.496094 152.652344 " fill-opacity="1" fill-rule="nonzero"/><g fill="#1f16ff" fill-opacity="1"><g transform="translate(127.659054, 163.671504)"><g><path d="M 22.578125 -30.890625 C 22.578125 -30.367188 22.554688 -29.929688 22.515625 -29.578125 C 22.472656 -29.222656 22.40625 -28.941406 22.3125 -28.734375 C 22.21875 -28.523438 22.109375 -28.367188 21.984375 -28.265625 C 21.859375 -28.160156 21.71875 -28.109375 21.5625 -28.109375 L 10.546875 -28.109375 L 10.546875 -19.046875 L 20.890625 -19.046875 C 21.046875 -19.046875 21.179688 -19 21.296875 -18.90625 C 21.421875 -18.820312 21.53125 -18.675781 21.625 -18.46875 C 21.726562 -18.257812 21.800781 -17.976562 21.84375 -17.625 C 21.882812 -17.28125 21.90625 -16.847656 21.90625 -16.328125 C 21.90625 -15.804688 21.882812 -15.375 21.84375 -15.03125 C 21.800781 -14.6875 21.726562 -14.398438 21.625 -14.171875 C 21.53125 -13.941406 21.421875 -13.78125 21.296875 -13.6875 C 21.179688 -13.59375 21.046875 -13.546875 20.890625 -13.546875 L 10.546875 -13.546875 L 10.546875 -0.984375 C 10.546875 -0.796875 10.492188 -0.628906 10.390625 -0.484375 C 10.285156 -0.347656 10.097656 -0.234375 9.828125 -0.140625 C 9.554688 -0.046875 9.203125 0.0234375 8.765625 0.078125 C 8.335938 0.128906 7.785156 0.15625 7.109375 0.15625 C 6.453125 0.15625 5.898438 0.128906 5.453125 0.078125 C 5.015625 0.0234375 4.664062 -0.046875 4.40625 -0.140625 C 4.144531 -0.234375 3.957031 -0.347656 3.84375 -0.484375 C 3.726562 -0.628906 3.671875 -0.796875 3.671875 -0.984375 L 3.671875 -31.546875 C 3.671875 -32.304688 3.863281 -32.851562 4.25 -33.1875 C 4.644531 -33.53125 5.128906 -33.703125 5.703125 -33.703125 L 21.5625 -33.703125 C 21.71875 -33.703125 21.859375 -33.65625 21.984375 -33.5625 C 22.109375 -33.46875 22.21875 -33.3125 22.3125 -33.09375 C 22.40625 -32.875 22.472656 -32.582031 22.515625 -32.21875 C 22.554688 -31.851562 22.578125 -31.410156 22.578125 -30.890625 Z M 22.578125 -30.890625 "/></g></g></g><g fill="#1f16ff" fill-opacity="1"><g transform="translate(152.135662, 163.671504)"><g><path d="M 10.546875 -0.9375 C 10.546875 -0.757812 10.488281 -0.601562 10.375 -0.46875 C 10.257812 -0.332031 10.070312 -0.21875 9.8125 -0.125 C 9.550781 -0.0390625 9.203125 0.0234375 8.765625 0.078125 C 8.335938 0.128906 7.785156 0.15625 7.109375 0.15625 C 6.453125 0.15625 5.898438 0.128906 5.453125 0.078125 C 5.015625 0.0234375 4.664062 -0.0390625 4.40625 -0.125 C 4.144531 -0.21875 3.957031 -0.332031 3.84375 -0.46875 C 3.726562 -0.601562 3.671875 -0.757812 3.671875 -0.9375 L 3.671875 -32.765625 C 3.671875 -32.941406 3.726562 -33.097656 3.84375 -33.234375 C 3.957031 -33.367188 4.144531 -33.476562 4.40625 -33.5625 C 4.675781 -33.65625 5.03125 -33.726562 5.46875 -33.78125 C 5.90625 -33.832031 6.453125 -33.859375 7.109375 -33.859375 C 7.785156 -33.859375 8.335938 -33.832031 8.765625 -33.78125 C 9.203125 -33.726562 9.550781 -33.65625 9.8125 -33.5625 C 10.070312 -33.476562 10.257812 -33.367188 10.375 -33.234375 C 10.488281 -33.097656 10.546875 -32.941406 10.546875 -32.765625 Z M 10.546875 -0.9375 "/></g></g></g><g fill="#1f16ff" fill-opacity="1"><g transform="translate(166.352926, 163.671504)"><g><path d="M 31.46875 -2.390625 C 31.46875 -1.992188 31.394531 -1.640625 31.25 -1.328125 C 31.113281 -1.015625 30.925781 -0.753906 30.6875 -0.546875 C 30.457031 -0.335938 30.179688 -0.1875 29.859375 -0.09375 C 29.535156 0 29.210938 0.046875 28.890625 0.046875 L 25.96875 0.046875 C 25.363281 0.046875 24.835938 -0.0078125 24.390625 -0.125 C 23.953125 -0.25 23.546875 -0.472656 23.171875 -0.796875 C 22.796875 -1.117188 22.429688 -1.550781 22.078125 -2.09375 C 21.734375 -2.644531 21.347656 -3.351562 20.921875 -4.21875 L 12.53125 -19.984375 C 12.039062 -20.921875 11.539062 -21.929688 11.03125 -23.015625 C 10.53125 -24.097656 10.082031 -25.148438 9.6875 -26.171875 L 9.640625 -26.171875 C 9.703125 -24.921875 9.75 -23.675781 9.78125 -22.4375 C 9.820312 -21.195312 9.84375 -19.914062 9.84375 -18.59375 L 9.84375 -0.96875 C 9.84375 -0.789062 9.796875 -0.628906 9.703125 -0.484375 C 9.609375 -0.347656 9.441406 -0.234375 9.203125 -0.140625 C 8.972656 -0.046875 8.65625 0.0234375 8.25 0.078125 C 7.851562 0.128906 7.34375 0.15625 6.71875 0.15625 C 6.113281 0.15625 5.609375 0.128906 5.203125 0.078125 C 4.804688 0.0234375 4.492188 -0.046875 4.265625 -0.140625 C 4.046875 -0.234375 3.890625 -0.347656 3.796875 -0.484375 C 3.710938 -0.628906 3.671875 -0.789062 3.671875 -0.96875 L 3.671875 -31.25 C 3.671875 -32.070312 3.910156 -32.6875 4.390625 -33.09375 C 4.867188 -33.5 5.453125 -33.703125 6.140625 -33.703125 L 9.8125 -33.703125 C 10.476562 -33.703125 11.035156 -33.644531 11.484375 -33.53125 C 11.929688 -33.414062 12.332031 -33.226562 12.6875 -32.96875 C 13.050781 -32.707031 13.390625 -32.347656 13.703125 -31.890625 C 14.015625 -31.429688 14.335938 -30.863281 14.671875 -30.1875 L 21.234375 -17.875 C 21.609375 -17.125 21.984375 -16.390625 22.359375 -15.671875 C 22.734375 -14.953125 23.09375 -14.226562 23.4375 -13.5 C 23.789062 -12.78125 24.128906 -12.070312 24.453125 -11.375 C 24.785156 -10.6875 25.109375 -9.992188 25.421875 -9.296875 L 25.453125 -9.296875 C 25.398438 -10.515625 25.359375 -11.78125 25.328125 -13.09375 C 25.304688 -14.414062 25.296875 -15.675781 25.296875 -16.875 L 25.296875 -32.6875 C 25.296875 -32.863281 25.347656 -33.019531 25.453125 -33.15625 C 25.554688 -33.289062 25.726562 -33.410156 25.96875 -33.515625 C 26.207031 -33.617188 26.523438 -33.691406 26.921875 -33.734375 C 27.328125 -33.785156 27.84375 -33.8125 28.46875 -33.8125 C 29.0625 -33.8125 29.554688 -33.785156 29.953125 -33.734375 C 30.347656 -33.691406 30.65625 -33.617188 30.875 -33.515625 C 31.09375 -33.410156 31.242188 -33.289062 31.328125 -33.15625 C 31.421875 -33.019531 31.46875 -32.863281 31.46875 -32.6875 Z M 31.46875 -2.390625 "/></g></g></g><g fill="#1f16ff" fill-opacity="1"><g transform="translate(201.479464, 163.671504)"><g><path d="M 23.65625 -2.6875 C 23.65625 -2.175781 23.628906 -1.75 23.578125 -1.40625 C 23.535156 -1.070312 23.472656 -0.800781 23.390625 -0.59375 C 23.304688 -0.382812 23.195312 -0.234375 23.0625 -0.140625 C 22.9375 -0.046875 22.796875 0 22.640625 0 L 5.703125 0 C 5.128906 0 4.644531 -0.164062 4.25 -0.5 C 3.863281 -0.84375 3.671875 -1.394531 3.671875 -2.15625 L 3.671875 -31.546875 C 3.671875 -32.304688 3.863281 -32.851562 4.25 -33.1875 C 4.644531 -33.53125 5.128906 -33.703125 5.703125 -33.703125 L 22.53125 -33.703125 C 22.6875 -33.703125 22.820312 -33.65625 22.9375 -33.5625 C 23.0625 -33.476562 23.164062 -33.328125 23.25 -33.109375 C 23.34375 -32.898438 23.410156 -32.625 23.453125 -32.28125 C 23.492188 -31.945312 23.515625 -31.519531 23.515625 -31 C 23.515625 -30.507812 23.492188 -30.09375 23.453125 -29.75 C 23.410156 -29.414062 23.34375 -29.144531 23.25 -28.9375 C 23.164062 -28.726562 23.0625 -28.578125 22.9375 -28.484375 C 22.820312 -28.390625 22.6875 -28.34375 22.53125 -28.34375 L 10.5 -28.34375 L 10.5 -20.109375 L 20.6875 -20.109375 C 20.84375 -20.109375 20.984375 -20.0625 21.109375 -19.96875 C 21.242188 -19.875 21.351562 -19.722656 21.4375 -19.515625 C 21.519531 -19.316406 21.582031 -19.046875 21.625 -18.703125 C 21.675781 -18.367188 21.703125 -17.960938 21.703125 -17.484375 C 21.703125 -16.972656 21.675781 -16.550781 21.625 -16.21875 C 21.582031 -15.894531 21.519531 -15.632812 21.4375 -15.4375 C 21.351562 -15.238281 21.242188 -15.09375 21.109375 -15 C 20.984375 -14.914062 20.84375 -14.875 20.6875 -14.875 L 10.5 -14.875 L 10.5 -5.359375 L 22.640625 -5.359375 C 22.796875 -5.359375 22.9375 -5.3125 23.0625 -5.21875 C 23.195312 -5.125 23.304688 -4.972656 23.390625 -4.765625 C 23.472656 -4.554688 23.535156 -4.28125 23.578125 -3.9375 C 23.628906 -3.601562 23.65625 -3.1875 23.65625 -2.6875 Z M 23.65625 -2.6875 "/></g></g></g><g fill="#1f16ff" fill-opacity="1"><g transform="translate(227.49237, 163.671504)"><g/></g></g><g fill="#1f16ff" fill-opacity="1"><g transform="translate(239.548401, 163.671504)"><g><path d="M 22.1875 -2.859375 C 22.1875 -2.335938 22.164062 -1.898438 22.125 -1.546875 C 22.082031 -1.191406 22.015625 -0.894531 21.921875 -0.65625 C 21.835938 -0.425781 21.726562 -0.257812 21.59375 -0.15625 C 21.46875 -0.0507812 21.320312 0 21.15625 0 L 5.703125 0 C 5.128906 0 4.644531 -0.164062 4.25 -0.5 C 3.863281 -0.84375 3.671875 -1.394531 3.671875 -2.15625 L 3.671875 -32.765625 C 3.671875 -32.941406 3.726562 -33.097656 3.84375 -33.234375 C 3.957031 -33.367188 4.144531 -33.476562 4.40625 -33.5625 C 4.664062 -33.65625 5.015625 -33.726562 5.453125 -33.78125 C 5.898438 -33.832031 6.453125 -33.859375 7.109375 -33.859375 C 7.785156 -33.859375 8.335938 -33.832031 8.765625 -33.78125 C 9.203125 -33.726562 9.550781 -33.65625 9.8125 -33.5625 C 10.070312 -33.476562 10.257812 -33.367188 10.375 -33.234375 C 10.488281 -33.097656 10.546875 -32.941406 10.546875 -32.765625 L 10.546875 -5.65625 L 21.15625 -5.65625 C 21.320312 -5.65625 21.46875 -5.601562 21.59375 -5.5 C 21.726562 -5.40625 21.835938 -5.25 21.921875 -5.03125 C 22.015625 -4.820312 22.082031 -4.535156 22.125 -4.171875 C 22.164062 -3.816406 22.1875 -3.378906 22.1875 -2.859375 Z M 22.1875 -2.859375 "/></g></g></g><g fill="#1f16ff" fill-opacity="1"><g transform="translate(262.098128, 163.671504)"><g><path d="M 10.546875 -0.9375 C 10.546875 -0.757812 10.488281 -0.601562 10.375 -0.46875 C 10.257812 -0.332031 10.070312 -0.21875 9.8125 -0.125 C 9.550781 -0.0390625 9.203125 0.0234375 8.765625 0.078125 C 8.335938 0.128906 7.785156 0.15625 7.109375 0.15625 C 6.453125 0.15625 5.898438 0.128906 5.453125 0.078125 C 5.015625 0.0234375 4.664062 -0.0390625 4.40625 -0.125 C 4.144531 -0.21875 3.957031 -0.332031 3.84375 -0.46875 C 3.726562 -0.601562 3.671875 -0.757812 3.671875 -0.9375 L 3.671875 -32.765625 C 3.671875 -32.941406 3.726562 -33.097656 3.84375 -33.234375 C 3.957031 -33.367188 4.144531 -33.476562 4.40625 -33.5625 C 4.675781 -33.65625 5.03125 -33.726562 5.46875 -33.78125 C 5.90625 -33.832031 6.453125 -33.859375 7.109375 -33.859375 C 7.785156 -33.859375 8.335938 -33.832031 8.765625 -33.78125 C 9.203125 -33.726562 9.550781 -33.65625 9.8125 -33.5625 C 10.070312 -33.476562 10.257812 -33.367188 10.375 -33.234375 C 10.488281 -33.097656 10.546875 -32.941406 10.546875 -32.765625 Z M 10.546875 -0.9375 "/></g></g></g><g fill="#1f16ff" fill-opacity="1"><g transform="translate(276.315392, 163.671504)"><g><path d="M 31.46875 -2.390625 C 31.46875 -1.992188 31.394531 -1.640625 31.25 -1.328125 C 31.113281 -1.015625 30.925781 -0.753906 30.6875 -0.546875 C 30.457031 -0.335938 30.179688 -0.1875 29.859375 -0.09375 C 29.535156 0 29.210938 0.046875 28.890625 0.046875 L 25.96875 0.046875 C 25.363281 0.046875 24.835938 -0.0078125 24.390625 -0.125 C 23.953125 -0.25 23.546875 -0.472656 23.171875 -0.796875 C 22.796875 -1.117188 22.429688 -1.550781 22.078125 -2.09375 C 21.734375 -2.644531 21.347656 -3.351562 20.921875 -4.21875 L 12.53125 -19.984375 C 12.039062 -20.921875 11.539062 -21.929688 11.03125 -23.015625 C 10.53125 -24.097656 10.082031 -25.148438 9.6875 -26.171875 L 9.640625 -26.171875 C 9.703125 -24.921875 9.75 -23.675781 9.78125 -22.4375 C 9.820312 -21.195312 9.84375 -19.914062 9.84375 -18.59375 L 9.84375 -0.96875 C 9.84375 -0.789062 9.796875 -0.628906 9.703125 -0.484375 C 9.609375 -0.347656 9.441406 -0.234375 9.203125 -0.140625 C 8.972656 -0.046875 8.65625 0.0234375 8.25 0.078125 C 7.851562 0.128906 7.34375 0.15625 6.71875 0.15625 C 6.113281 0.15625 5.609375 0.128906 5.203125 0.078125 C 4.804688 0.0234375 4.492188 -0.046875 4.265625 -0.140625 C 4.046875 -0.234375 3.890625 -0.347656 3.796875 -0.484375 C 3.710938 -0.628906 3.671875 -0.789062 3.671875 -0.96875 L 3.671875 -31.25 C 3.671875 -32.070312 3.910156 -32.6875 4.390625 -33.09375 C 4.867188 -33.5 5.453125 -33.703125 6.140625 -33.703125 L 9.8125 -33.703125 C 10.476562 -33.703125 11.035156 -33.644531 11.484375 -33.53125 C 11.929688 -33.414062 12.332031 -33.226562 12.6875 -32.96875 C 13.050781 -32.707031 13.390625 -32.347656 13.703125 -31.890625 C 14.015625 -31.429688 14.335938 -30.863281 14.671875 -30.1875 L 21.234375 -17.875 C 21.609375 -17.125 21.984375 -16.390625 22.359375 -15.671875 C 22.734375 -14.953125 23.09375 -14.226562 23.4375 -13.5 C 23.789062 -12.78125 24.128906 -12.070312 24.453125 -11.375 C 24.785156 -10.6875 25.109375 -9.992188 25.421875 -9.296875 L 25.453125 -9.296875 C 25.398438 -10.515625 25.359375 -11.78125 25.328125 -13.09375 C 25.304688 -14.414062 25.296875 -15.675781 25.296875 -16.875 L 25.296875 -32.6875 C 25.296875 -32.863281 25.347656 -33.019531 25.453125 -33.15625 C 25.554688 -33.289062 25.726562 -33.410156 25.96875 -33.515625 C 26.207031 -33.617188 26.523438 -33.691406 26.921875 -33.734375 C 27.328125 -33.785156 27.84375 -33.8125 28.46875 -33.8125 C 29.0625 -33.8125 29.554688 -33.785156 29.953125 -33.734375 C 30.347656 -33.691406 30.65625 -33.617188 30.875 -33.515625 C 31.09375 -33.410156 31.242188 -33.289062 31.328125 -33.15625 C 31.421875 -33.019531 31.46875 -32.863281 31.46875 -32.6875 Z M 31.46875 -2.390625 "/></g></g></g><g fill="#1f16ff" fill-opacity="1"><g transform="translate(311.441929, 163.671504)"><g><path d="M 23.65625 -2.6875 C 23.65625 -2.175781 23.628906 -1.75 23.578125 -1.40625 C 23.535156 -1.070312 23.472656 -0.800781 23.390625 -0.59375 C 23.304688 -0.382812 23.195312 -0.234375 23.0625 -0.140625 C 22.9375 -0.046875 22.796875 0 22.640625 0 L 5.703125 0 C 5.128906 0 4.644531 -0.164062 4.25 -0.5 C 3.863281 -0.84375 3.671875 -1.394531 3.671875 -2.15625 L 3.671875 -31.546875 C 3.671875 -32.304688 3.863281 -32.851562 4.25 -33.1875 C 4.644531 -33.53125 5.128906 -33.703125 5.703125 -33.703125 L 22.53125 -33.703125 C 22.6875 -33.703125 22.820312 -33.65625 22.9375 -33.5625 C 23.0625 -33.476562 23.164062 -33.328125 23.25 -33.109375 C 23.34375 -32.898438 23.410156 -32.625 23.453125 -32.28125 C 23.492188 -31.945312 23.515625 -31.519531 23.515625 -31 C 23.515625 -30.507812 23.492188 -30.09375 23.453125 -29.75 C 23.410156 -29.414062 23.34375 -29.144531 23.25 -28.9375 C 23.164062 -28.726562 23.0625 -28.578125 22.9375 -28.484375 C 22.820312 -28.390625 22.6875 -28.34375 22.53125 -28.34375 L 10.5 -28.34375 L 10.5 -20.109375 L 20.6875 -20.109375 C 20.84375 -20.109375 20.984375 -20.0625 21.109375 -19.96875 C 21.242188 -19.875 21.351562 -19.722656 21.4375 -19.515625 C 21.519531 -19.316406 21.582031 -19.046875 21.625 -18.703125 C 21.675781 -18.367188 21.703125 -17.960938 21.703125 -17.484375 C 21.703125 -16.972656 21.675781 -16.550781 21.625 -16.21875 C 21.582031 -15.894531 21.519531 -15.632812 21.4375 -15.4375 C 21.351562 -15.238281 21.242188 -15.09375 21.109375 -15 C 20.984375 -14.914062 20.84375 -14.875 20.6875 -14.875 L 10.5 -14.875 L 10.5 -5.359375 L 22.640625 -5.359375 C 22.796875 -5.359375 22.9375 -5.3125 23.0625 -5.21875 C 23.195312 -5.125 23.304688 -4.972656 23.390625 -4.765625 C 23.472656 -4.554688 23.535156 -4.28125 23.578125 -3.9375 C 23.628906 -3.601562 23.65625 -3.1875 23.65625 -2.6875 Z M 23.65625 -2.6875 "/></g></g></g><g fill="#000000" fill-opacity="1"><g transform="translate(131.591371, 191.522895)"><g><path d="M 13.25 -1.171875 C 13.25 -0.960938 13.238281 -0.785156 13.21875 -0.640625 C 13.195312 -0.503906 13.160156 -0.382812 13.109375 -0.28125 C 13.066406 -0.1875 13.007812 -0.113281 12.9375 -0.0625 C 12.875 -0.0195312 12.796875 0 12.703125 0 L 3.703125 0 C 3.460938 0 3.234375 -0.078125 3.015625 -0.234375 C 2.804688 -0.398438 2.703125 -0.6875 2.703125 -1.09375 L 2.703125 -19.9375 C 2.703125 -20.019531 2.722656 -20.09375 2.765625 -20.15625 C 2.804688 -20.21875 2.878906 -20.265625 2.984375 -20.296875 C 3.085938 -20.335938 3.226562 -20.367188 3.40625 -20.390625 C 3.582031 -20.421875 3.800781 -20.4375 4.0625 -20.4375 C 4.320312 -20.4375 4.535156 -20.421875 4.703125 -20.390625 C 4.878906 -20.367188 5.019531 -20.335938 5.125 -20.296875 C 5.226562 -20.265625 5.300781 -20.21875 5.34375 -20.15625 C 5.382812 -20.09375 5.40625 -20.019531 5.40625 -19.9375 L 5.40625 -2.34375 L 12.703125 -2.34375 C 12.796875 -2.34375 12.875 -2.316406 12.9375 -2.265625 C 13.007812 -2.222656 13.066406 -2.15625 13.109375 -2.0625 C 13.160156 -1.976562 13.195312 -1.863281 13.21875 -1.71875 C 13.238281 -1.570312 13.25 -1.390625 13.25 -1.171875 Z M 13.25 -1.171875 "/></g></g></g><g fill="#000000" fill-opacity="1"><g transform="translate(145.126977, 191.522895)"><g><path d="M 17.9375 -0.953125 C 18.019531 -0.722656 18.0625 -0.535156 18.0625 -0.390625 C 18.070312 -0.253906 18.035156 -0.148438 17.953125 -0.078125 C 17.867188 -0.00390625 17.726562 0.0390625 17.53125 0.0625 C 17.34375 0.0820312 17.085938 0.09375 16.765625 0.09375 C 16.441406 0.09375 16.179688 0.0820312 15.984375 0.0625 C 15.785156 0.0507812 15.632812 0.03125 15.53125 0 C 15.4375 -0.0390625 15.363281 -0.09375 15.3125 -0.15625 C 15.269531 -0.21875 15.226562 -0.296875 15.1875 -0.390625 L 13.4375 -5.34375 L 4.984375 -5.34375 L 3.3125 -0.453125 C 3.28125 -0.359375 3.238281 -0.273438 3.1875 -0.203125 C 3.132812 -0.140625 3.054688 -0.0820312 2.953125 -0.03125 C 2.859375 0.0078125 2.71875 0.0390625 2.53125 0.0625 C 2.351562 0.0820312 2.117188 0.09375 1.828125 0.09375 C 1.523438 0.09375 1.273438 0.078125 1.078125 0.046875 C 0.878906 0.0234375 0.738281 -0.0195312 0.65625 -0.09375 C 0.582031 -0.164062 0.546875 -0.269531 0.546875 -0.40625 C 0.554688 -0.550781 0.601562 -0.738281 0.6875 -0.96875 L 7.515625 -19.875 C 7.554688 -19.988281 7.609375 -20.082031 7.671875 -20.15625 C 7.742188 -20.226562 7.84375 -20.285156 7.96875 -20.328125 C 8.101562 -20.367188 8.273438 -20.394531 8.484375 -20.40625 C 8.691406 -20.425781 8.953125 -20.4375 9.265625 -20.4375 C 9.597656 -20.4375 9.875 -20.425781 10.09375 -20.40625 C 10.3125 -20.394531 10.488281 -20.367188 10.625 -20.328125 C 10.757812 -20.285156 10.863281 -20.222656 10.9375 -20.140625 C 11.007812 -20.066406 11.066406 -19.972656 11.109375 -19.859375 Z M 9.1875 -17.640625 L 9.171875 -17.640625 L 5.65625 -7.5 L 12.734375 -7.5 Z M 9.1875 -17.640625 "/></g></g></g><g fill="#000000" fill-opacity="1"><g transform="translate(163.75612, 191.522895)"><g><path d="M 13.640625 -5.703125 C 13.640625 -4.753906 13.460938 -3.90625 13.109375 -3.15625 C 12.753906 -2.414062 12.265625 -1.785156 11.640625 -1.265625 C 11.015625 -0.742188 10.28125 -0.351562 9.4375 -0.09375 C 8.59375 0.164062 7.6875 0.296875 6.71875 0.296875 C 6.03125 0.296875 5.394531 0.238281 4.8125 0.125 C 4.238281 0.0078125 3.722656 -0.128906 3.265625 -0.296875 C 2.804688 -0.460938 2.421875 -0.632812 2.109375 -0.8125 C 1.804688 -0.988281 1.59375 -1.140625 1.46875 -1.265625 C 1.351562 -1.398438 1.265625 -1.5625 1.203125 -1.75 C 1.140625 -1.945312 1.109375 -2.207031 1.109375 -2.53125 C 1.109375 -2.757812 1.117188 -2.945312 1.140625 -3.09375 C 1.160156 -3.25 1.191406 -3.375 1.234375 -3.46875 C 1.285156 -3.5625 1.34375 -3.628906 1.40625 -3.671875 C 1.46875 -3.710938 1.539062 -3.734375 1.625 -3.734375 C 1.769531 -3.734375 1.972656 -3.640625 2.234375 -3.453125 C 2.503906 -3.273438 2.847656 -3.082031 3.265625 -2.875 C 3.691406 -2.664062 4.195312 -2.46875 4.78125 -2.28125 C 5.375 -2.101562 6.0625 -2.015625 6.84375 -2.015625 C 7.425781 -2.015625 7.960938 -2.09375 8.453125 -2.25 C 8.941406 -2.40625 9.359375 -2.625 9.703125 -2.90625 C 10.054688 -3.195312 10.328125 -3.550781 10.515625 -3.96875 C 10.703125 -4.394531 10.796875 -4.875 10.796875 -5.40625 C 10.796875 -5.988281 10.664062 -6.484375 10.40625 -6.890625 C 10.144531 -7.296875 9.800781 -7.648438 9.375 -7.953125 C 8.945312 -8.265625 8.457031 -8.550781 7.90625 -8.8125 C 7.351562 -9.070312 6.785156 -9.332031 6.203125 -9.59375 C 5.628906 -9.863281 5.066406 -10.160156 4.515625 -10.484375 C 3.972656 -10.804688 3.488281 -11.1875 3.0625 -11.625 C 2.632812 -12.070312 2.285156 -12.59375 2.015625 -13.1875 C 1.753906 -13.78125 1.625 -14.488281 1.625 -15.3125 C 1.625 -16.164062 1.773438 -16.925781 2.078125 -17.59375 C 2.390625 -18.257812 2.820312 -18.816406 3.375 -19.265625 C 3.925781 -19.710938 4.582031 -20.050781 5.34375 -20.28125 C 6.101562 -20.519531 6.921875 -20.640625 7.796875 -20.640625 C 8.242188 -20.640625 8.695312 -20.597656 9.15625 -20.515625 C 9.613281 -20.441406 10.039062 -20.335938 10.4375 -20.203125 C 10.84375 -20.078125 11.203125 -19.929688 11.515625 -19.765625 C 11.835938 -19.609375 12.046875 -19.476562 12.140625 -19.375 C 12.242188 -19.28125 12.3125 -19.203125 12.34375 -19.140625 C 12.375 -19.085938 12.398438 -19.015625 12.421875 -18.921875 C 12.441406 -18.835938 12.457031 -18.726562 12.46875 -18.59375 C 12.476562 -18.46875 12.484375 -18.304688 12.484375 -18.109375 C 12.484375 -17.921875 12.472656 -17.753906 12.453125 -17.609375 C 12.441406 -17.460938 12.421875 -17.335938 12.390625 -17.234375 C 12.359375 -17.140625 12.3125 -17.066406 12.25 -17.015625 C 12.195312 -16.972656 12.132812 -16.953125 12.0625 -16.953125 C 11.945312 -16.953125 11.765625 -17.023438 11.515625 -17.171875 C 11.273438 -17.316406 10.972656 -17.476562 10.609375 -17.65625 C 10.253906 -17.84375 9.832031 -18.007812 9.34375 -18.15625 C 8.851562 -18.3125 8.304688 -18.390625 7.703125 -18.390625 C 7.140625 -18.390625 6.644531 -18.3125 6.21875 -18.15625 C 5.800781 -18.007812 5.457031 -17.8125 5.1875 -17.5625 C 4.914062 -17.3125 4.710938 -17.015625 4.578125 -16.671875 C 4.441406 -16.328125 4.375 -15.957031 4.375 -15.5625 C 4.375 -15 4.503906 -14.507812 4.765625 -14.09375 C 5.023438 -13.6875 5.375 -13.328125 5.8125 -13.015625 C 6.25 -12.703125 6.742188 -12.414062 7.296875 -12.15625 C 7.847656 -11.894531 8.410156 -11.628906 8.984375 -11.359375 C 9.566406 -11.085938 10.132812 -10.789062 10.6875 -10.46875 C 11.25 -10.15625 11.742188 -9.78125 12.171875 -9.34375 C 12.609375 -8.914062 12.960938 -8.40625 13.234375 -7.8125 C 13.503906 -7.21875 13.640625 -6.515625 13.640625 -5.703125 Z M 13.640625 -5.703125 "/></g></g></g><g fill="#000000" fill-opacity="1"><g transform="translate(178.549389, 191.522895)"><g><path d="M 14.03125 -1.109375 C 14.03125 -0.921875 14.019531 -0.753906 14 -0.609375 C 13.976562 -0.472656 13.941406 -0.359375 13.890625 -0.265625 C 13.835938 -0.171875 13.773438 -0.101562 13.703125 -0.0625 C 13.628906 -0.0195312 13.550781 0 13.46875 0 L 3.703125 0 C 3.460938 0 3.234375 -0.078125 3.015625 -0.234375 C 2.804688 -0.398438 2.703125 -0.6875 2.703125 -1.09375 L 2.703125 -19.25 C 2.703125 -19.65625 2.804688 -19.9375 3.015625 -20.09375 C 3.234375 -20.257812 3.460938 -20.34375 3.703125 -20.34375 L 13.359375 -20.34375 C 13.441406 -20.34375 13.519531 -20.320312 13.59375 -20.28125 C 13.664062 -20.238281 13.722656 -20.171875 13.765625 -20.078125 C 13.804688 -19.984375 13.835938 -19.863281 13.859375 -19.71875 C 13.890625 -19.582031 13.90625 -19.410156 13.90625 -19.203125 C 13.90625 -19.015625 13.890625 -18.847656 13.859375 -18.703125 C 13.835938 -18.554688 13.804688 -18.4375 13.765625 -18.34375 C 13.722656 -18.257812 13.664062 -18.195312 13.59375 -18.15625 C 13.519531 -18.113281 13.441406 -18.09375 13.359375 -18.09375 L 5.40625 -18.09375 L 5.40625 -11.71875 L 12.234375 -11.71875 C 12.316406 -11.71875 12.390625 -11.691406 12.453125 -11.640625 C 12.523438 -11.597656 12.582031 -11.535156 12.625 -11.453125 C 12.675781 -11.367188 12.710938 -11.25 12.734375 -11.09375 C 12.753906 -10.945312 12.765625 -10.773438 12.765625 -10.578125 C 12.765625 -10.390625 12.753906 -10.226562 12.734375 -10.09375 C 12.710938 -9.957031 12.675781 -9.847656 12.625 -9.765625 C 12.582031 -9.679688 12.523438 -9.617188 12.453125 -9.578125 C 12.390625 -9.546875 12.316406 -9.53125 12.234375 -9.53125 L 5.40625 -9.53125 L 5.40625 -2.25 L 13.46875 -2.25 C 13.550781 -2.25 13.628906 -2.226562 13.703125 -2.1875 C 13.773438 -2.144531 13.835938 -2.078125 13.890625 -1.984375 C 13.941406 -1.898438 13.976562 -1.785156 14 -1.640625 C 14.019531 -1.503906 14.03125 -1.328125 14.03125 -1.109375 Z M 14.03125 -1.109375 "/></g></g></g><g fill="#000000" fill-opacity="1"><g transform="translate(194.270185, 191.522895)"><g><path d="M 16.28125 -0.40625 C 16.28125 -0.320312 16.265625 -0.25 16.234375 -0.1875 C 16.203125 -0.125 16.128906 -0.0703125 16.015625 -0.03125 C 15.910156 0.0078125 15.765625 0.0390625 15.578125 0.0625 C 15.390625 0.0820312 15.140625 0.09375 14.828125 0.09375 C 14.554688 0.09375 14.332031 0.0820312 14.15625 0.0625 C 13.988281 0.0390625 13.847656 0.0078125 13.734375 -0.03125 C 13.628906 -0.0820312 13.546875 -0.148438 13.484375 -0.234375 C 13.429688 -0.316406 13.382812 -0.421875 13.34375 -0.546875 L 11.484375 -5.34375 C 11.265625 -5.882812 11.035156 -6.382812 10.796875 -6.84375 C 10.554688 -7.300781 10.273438 -7.691406 9.953125 -8.015625 C 9.628906 -8.347656 9.242188 -8.609375 8.796875 -8.796875 C 8.359375 -8.984375 7.832031 -9.078125 7.21875 -9.078125 L 5.40625 -9.078125 L 5.40625 -0.40625 C 5.40625 -0.320312 5.378906 -0.25 5.328125 -0.1875 C 5.285156 -0.125 5.210938 -0.0703125 5.109375 -0.03125 C 5.015625 0 4.878906 0.0234375 4.703125 0.046875 C 4.535156 0.078125 4.320312 0.09375 4.0625 0.09375 C 3.789062 0.09375 3.566406 0.078125 3.390625 0.046875 C 3.222656 0.0234375 3.085938 0 2.984375 -0.03125 C 2.878906 -0.0703125 2.804688 -0.125 2.765625 -0.1875 C 2.722656 -0.25 2.703125 -0.320312 2.703125 -0.40625 L 2.703125 -19.25 C 2.703125 -19.65625 2.804688 -19.9375 3.015625 -20.09375 C 3.234375 -20.257812 3.460938 -20.34375 3.703125 -20.34375 L 8.03125 -20.34375 C 8.550781 -20.34375 8.976562 -20.328125 9.3125 -20.296875 C 9.65625 -20.273438 9.960938 -20.25 10.234375 -20.21875 C 11.023438 -20.082031 11.71875 -19.867188 12.3125 -19.578125 C 12.914062 -19.285156 13.421875 -18.910156 13.828125 -18.453125 C 14.242188 -18.003906 14.550781 -17.488281 14.75 -16.90625 C 14.957031 -16.320312 15.0625 -15.679688 15.0625 -14.984375 C 15.0625 -14.304688 14.96875 -13.695312 14.78125 -13.15625 C 14.601562 -12.613281 14.335938 -12.132812 13.984375 -11.71875 C 13.640625 -11.300781 13.226562 -10.941406 12.75 -10.640625 C 12.269531 -10.335938 11.726562 -10.082031 11.125 -9.875 C 11.46875 -9.726562 11.773438 -9.539062 12.046875 -9.3125 C 12.316406 -9.09375 12.566406 -8.820312 12.796875 -8.5 C 13.035156 -8.1875 13.257812 -7.828125 13.46875 -7.421875 C 13.6875 -7.015625 13.898438 -6.550781 14.109375 -6.03125 L 15.921875 -1.5625 C 16.078125 -1.175781 16.175781 -0.90625 16.21875 -0.75 C 16.257812 -0.601562 16.28125 -0.488281 16.28125 -0.40625 Z M 12.203125 -14.703125 C 12.203125 -15.492188 12.019531 -16.164062 11.65625 -16.71875 C 11.300781 -17.269531 10.707031 -17.664062 9.875 -17.90625 C 9.613281 -17.976562 9.316406 -18.03125 8.984375 -18.0625 C 8.648438 -18.09375 8.21875 -18.109375 7.6875 -18.109375 L 5.40625 -18.109375 L 5.40625 -11.265625 L 8.046875 -11.265625 C 8.765625 -11.265625 9.378906 -11.347656 9.890625 -11.515625 C 10.410156 -11.691406 10.84375 -11.929688 11.1875 -12.234375 C 11.539062 -12.546875 11.796875 -12.910156 11.953125 -13.328125 C 12.117188 -13.753906 12.203125 -14.210938 12.203125 -14.703125 Z M 12.203125 -14.703125 "/></g></g></g><g fill="#000000" fill-opacity="1"><g transform="translate(211.75171, 191.522895)"><g/></g></g><g fill="#000000" fill-opacity="1"><g transform="translate(219.030438, 191.522895)"><g><path d="M 16.296875 -2.875 C 16.296875 -2.707031 16.289062 -2.5625 16.28125 -2.4375 C 16.269531 -2.3125 16.25 -2.203125 16.21875 -2.109375 C 16.195312 -2.015625 16.160156 -1.929688 16.109375 -1.859375 C 16.066406 -1.785156 15.992188 -1.695312 15.890625 -1.59375 C 15.785156 -1.488281 15.566406 -1.328125 15.234375 -1.109375 C 14.898438 -0.890625 14.484375 -0.675781 13.984375 -0.46875 C 13.484375 -0.269531 12.910156 -0.101562 12.265625 0.03125 C 11.628906 0.175781 10.925781 0.25 10.15625 0.25 C 8.832031 0.25 7.640625 0.03125 6.578125 -0.40625 C 5.515625 -0.84375 4.609375 -1.488281 3.859375 -2.34375 C 3.109375 -3.207031 2.53125 -4.269531 2.125 -5.53125 C 1.726562 -6.800781 1.53125 -8.257812 1.53125 -9.90625 C 1.53125 -11.59375 1.742188 -13.097656 2.171875 -14.421875 C 2.609375 -15.742188 3.21875 -16.863281 4 -17.78125 C 4.789062 -18.695312 5.734375 -19.394531 6.828125 -19.875 C 7.921875 -20.351562 9.132812 -20.59375 10.46875 -20.59375 C 11.0625 -20.59375 11.632812 -20.535156 12.1875 -20.421875 C 12.738281 -20.316406 13.25 -20.179688 13.71875 -20.015625 C 14.195312 -19.847656 14.617188 -19.65625 14.984375 -19.4375 C 15.347656 -19.21875 15.597656 -19.035156 15.734375 -18.890625 C 15.878906 -18.753906 15.972656 -18.644531 16.015625 -18.5625 C 16.054688 -18.488281 16.09375 -18.398438 16.125 -18.296875 C 16.15625 -18.203125 16.175781 -18.085938 16.1875 -17.953125 C 16.207031 -17.816406 16.21875 -17.65625 16.21875 -17.46875 C 16.21875 -17.257812 16.207031 -17.082031 16.1875 -16.9375 C 16.164062 -16.789062 16.128906 -16.664062 16.078125 -16.5625 C 16.035156 -16.46875 15.984375 -16.394531 15.921875 -16.34375 C 15.867188 -16.300781 15.800781 -16.28125 15.71875 -16.28125 C 15.570312 -16.28125 15.367188 -16.378906 15.109375 -16.578125 C 14.847656 -16.785156 14.507812 -17.007812 14.09375 -17.25 C 13.675781 -17.5 13.171875 -17.722656 12.578125 -17.921875 C 11.992188 -18.128906 11.285156 -18.234375 10.453125 -18.234375 C 9.554688 -18.234375 8.738281 -18.050781 8 -17.6875 C 7.257812 -17.332031 6.625 -16.800781 6.09375 -16.09375 C 5.570312 -15.394531 5.164062 -14.539062 4.875 -13.53125 C 4.59375 -12.519531 4.453125 -11.363281 4.453125 -10.0625 C 4.453125 -8.769531 4.585938 -7.628906 4.859375 -6.640625 C 5.140625 -5.648438 5.539062 -4.820312 6.0625 -4.15625 C 6.582031 -3.488281 7.21875 -2.984375 7.96875 -2.640625 C 8.726562 -2.304688 9.582031 -2.140625 10.53125 -2.140625 C 11.34375 -2.140625 12.046875 -2.238281 12.640625 -2.4375 C 13.242188 -2.632812 13.757812 -2.851562 14.1875 -3.09375 C 14.613281 -3.34375 14.960938 -3.566406 15.234375 -3.765625 C 15.503906 -3.972656 15.71875 -4.078125 15.875 -4.078125 C 15.945312 -4.078125 16.007812 -4.0625 16.0625 -4.03125 C 16.125 -4 16.171875 -3.9375 16.203125 -3.84375 C 16.234375 -3.75 16.253906 -3.625 16.265625 -3.46875 C 16.285156 -3.3125 16.296875 -3.113281 16.296875 -2.875 Z M 16.296875 -2.875 "/></g></g></g><g fill="#000000" fill-opacity="1"><g transform="translate(236.197547, 191.522895)"><g><path d="M 18 -7.515625 C 18 -6.273438 17.816406 -5.171875 17.453125 -4.203125 C 17.097656 -3.234375 16.582031 -2.410156 15.90625 -1.734375 C 15.238281 -1.066406 14.421875 -0.5625 13.453125 -0.21875 C 12.492188 0.125 11.398438 0.296875 10.171875 0.296875 C 9.046875 0.296875 8.019531 0.132812 7.09375 -0.1875 C 6.175781 -0.507812 5.390625 -0.988281 4.734375 -1.625 C 4.078125 -2.257812 3.566406 -3.050781 3.203125 -4 C 2.847656 -4.957031 2.671875 -6.0625 2.671875 -7.3125 L 2.671875 -19.9375 C 2.671875 -20.019531 2.691406 -20.09375 2.734375 -20.15625 C 2.773438 -20.21875 2.847656 -20.265625 2.953125 -20.296875 C 3.054688 -20.335938 3.191406 -20.367188 3.359375 -20.390625 C 3.523438 -20.421875 3.75 -20.4375 4.03125 -20.4375 C 4.28125 -20.4375 4.492188 -20.421875 4.671875 -20.390625 C 4.847656 -20.367188 4.984375 -20.335938 5.078125 -20.296875 C 5.179688 -20.265625 5.253906 -20.21875 5.296875 -20.15625 C 5.335938 -20.09375 5.359375 -20.019531 5.359375 -19.9375 L 5.359375 -7.640625 C 5.359375 -6.703125 5.472656 -5.878906 5.703125 -5.171875 C 5.929688 -4.472656 6.265625 -3.890625 6.703125 -3.421875 C 7.140625 -2.953125 7.664062 -2.597656 8.28125 -2.359375 C 8.894531 -2.128906 9.582031 -2.015625 10.34375 -2.015625 C 11.132812 -2.015625 11.832031 -2.128906 12.4375 -2.359375 C 13.050781 -2.585938 13.570312 -2.929688 14 -3.390625 C 14.425781 -3.859375 14.75 -4.429688 14.96875 -5.109375 C 15.195312 -5.785156 15.3125 -6.582031 15.3125 -7.5 L 15.3125 -19.9375 C 15.3125 -20.019531 15.332031 -20.09375 15.375 -20.15625 C 15.414062 -20.21875 15.488281 -20.265625 15.59375 -20.296875 C 15.695312 -20.335938 15.835938 -20.367188 16.015625 -20.390625 C 16.191406 -20.421875 16.410156 -20.4375 16.671875 -20.4375 C 16.921875 -20.4375 17.128906 -20.421875 17.296875 -20.390625 C 17.472656 -20.367188 17.609375 -20.335938 17.703125 -20.296875 C 17.804688 -20.265625 17.878906 -20.21875 17.921875 -20.15625 C 17.972656 -20.09375 18 -20.019531 18 -19.9375 Z M 18 -7.515625 "/></g></g></g><g fill="#000000" fill-opacity="1"><g transform="translate(256.854673, 191.522895)"><g><path d="M 15.453125 -19.1875 C 15.453125 -18.988281 15.441406 -18.8125 15.421875 -18.65625 C 15.398438 -18.507812 15.363281 -18.390625 15.3125 -18.296875 C 15.269531 -18.210938 15.210938 -18.148438 15.140625 -18.109375 C 15.078125 -18.066406 15.003906 -18.046875 14.921875 -18.046875 L 9.203125 -18.046875 L 9.203125 -0.40625 C 9.203125 -0.320312 9.179688 -0.25 9.140625 -0.1875 C 9.097656 -0.125 9.023438 -0.0703125 8.921875 -0.03125 C 8.816406 0 8.675781 0.0234375 8.5 0.046875 C 8.320312 0.078125 8.101562 0.09375 7.84375 0.09375 C 7.59375 0.09375 7.378906 0.078125 7.203125 0.046875 C 7.023438 0.0234375 6.882812 0 6.78125 -0.03125 C 6.675781 -0.0703125 6.601562 -0.125 6.5625 -0.1875 C 6.519531 -0.25 6.5 -0.320312 6.5 -0.40625 L 6.5 -18.046875 L 0.765625 -18.046875 C 0.679688 -18.046875 0.601562 -18.066406 0.53125 -18.109375 C 0.46875 -18.148438 0.414062 -18.210938 0.375 -18.296875 C 0.332031 -18.390625 0.296875 -18.507812 0.265625 -18.65625 C 0.242188 -18.8125 0.234375 -18.988281 0.234375 -19.1875 C 0.234375 -19.382812 0.242188 -19.554688 0.265625 -19.703125 C 0.296875 -19.859375 0.332031 -19.984375 0.375 -20.078125 C 0.414062 -20.171875 0.46875 -20.238281 0.53125 -20.28125 C 0.601562 -20.320312 0.679688 -20.34375 0.765625 -20.34375 L 14.921875 -20.34375 C 15.003906 -20.34375 15.078125 -20.320312 15.140625 -20.28125 C 15.210938 -20.238281 15.269531 -20.171875 15.3125 -20.078125 C 15.363281 -19.984375 15.398438 -19.859375 15.421875 -19.703125 C 15.441406 -19.554688 15.453125 -19.382812 15.453125 -19.1875 Z M 15.453125 -19.1875 "/></g></g></g><g fill="#000000" fill-opacity="1"><g transform="translate(272.544027, 191.522895)"><g><path d="M 15.453125 -19.1875 C 15.453125 -18.988281 15.441406 -18.8125 15.421875 -18.65625 C 15.398438 -18.507812 15.363281 -18.390625 15.3125 -18.296875 C 15.269531 -18.210938 15.210938 -18.148438 15.140625 -18.109375 C 15.078125 -18.066406 15.003906 -18.046875 14.921875 -18.046875 L 9.203125 -18.046875 L 9.203125 -0.40625 C 9.203125 -0.320312 9.179688 -0.25 9.140625 -0.1875 C 9.097656 -0.125 9.023438 -0.0703125 8.921875 -0.03125 C 8.816406 0 8.675781 0.0234375 8.5 0.046875 C 8.320312 0.078125 8.101562 0.09375 7.84375 0.09375 C 7.59375 0.09375 7.378906 0.078125 7.203125 0.046875 C 7.023438 0.0234375 6.882812 0 6.78125 -0.03125 C 6.675781 -0.0703125 6.601562 -0.125 6.5625 -0.1875 C 6.519531 -0.25 6.5 -0.320312 6.5 -0.40625 L 6.5 -18.046875 L 0.765625 -18.046875 C 0.679688 -18.046875 0.601562 -18.066406 0.53125 -18.109375 C 0.46875 -18.148438 0.414062 -18.210938 0.375 -18.296875 C 0.332031 -18.390625 0.296875 -18.507812 0.265625 -18.65625 C 0.242188 -18.8125 0.234375 -18.988281 0.234375 -19.1875 C 0.234375 -19.382812 0.242188 -19.554688 0.265625 -19.703125 C 0.296875 -19.859375 0.332031 -19.984375 0.375 -20.078125 C 0.414062 -20.171875 0.46875 -20.238281 0.53125 -20.28125 C 0.601562 -20.320312 0.679688 -20.34375 0.765625 -20.34375 L 14.921875 -20.34375 C 15.003906 -20.34375 15.078125 -20.320312 15.140625 -20.28125 C 15.210938 -20.238281 15.269531 -20.171875 15.3125 -20.078125 C 15.363281 -19.984375 15.398438 -19.859375 15.421875 -19.703125 C 15.441406 -19.554688 15.453125 -19.382812 15.453125 -19.1875 Z M 15.453125 -19.1875 "/></g></g></g><g fill="#000000" fill-opacity="1"><g transform="translate(288.233381, 191.522895)"><g><path d="M 5.40625 -0.40625 C 5.40625 -0.320312 5.382812 -0.25 5.34375 -0.1875 C 5.300781 -0.125 5.226562 -0.0703125 5.125 -0.03125 C 5.019531 0 4.878906 0.0234375 4.703125 0.046875 C 4.535156 0.078125 4.320312 0.09375 4.0625 0.09375 C 3.800781 0.09375 3.582031 0.078125 3.40625 0.046875 C 3.226562 0.0234375 3.085938 0 2.984375 -0.03125 C 2.878906 -0.0703125 2.804688 -0.125 2.765625 -0.1875 C 2.722656 -0.25 2.703125 -0.320312 2.703125 -0.40625 L 2.703125 -19.9375 C 2.703125 -20.019531 2.722656 -20.09375 2.765625 -20.15625 C 2.816406 -20.21875 2.894531 -20.265625 3 -20.296875 C 3.113281 -20.335938 3.253906 -20.367188 3.421875 -20.390625 C 3.597656 -20.421875 3.8125 -20.4375 4.0625 -20.4375 C 4.320312 -20.4375 4.535156 -20.421875 4.703125 -20.390625 C 4.878906 -20.367188 5.019531 -20.335938 5.125 -20.296875 C 5.226562 -20.265625 5.300781 -20.21875 5.34375 -20.15625 C 5.382812 -20.09375 5.40625 -20.019531 5.40625 -19.9375 Z M 5.40625 -0.40625 "/></g></g></g><g fill="#000000" fill-opacity="1"><g transform="translate(296.345312, 191.522895)"><g><path d="M 18.078125 -1.109375 C 18.078125 -0.898438 18.039062 -0.722656 17.96875 -0.578125 C 17.90625 -0.429688 17.816406 -0.3125 17.703125 -0.21875 C 17.597656 -0.125 17.476562 -0.0546875 17.34375 -0.015625 C 17.207031 0.0234375 17.070312 0.046875 16.9375 0.046875 L 16.0625 0.046875 C 15.789062 0.046875 15.550781 0.0195312 15.34375 -0.03125 C 15.144531 -0.09375 14.953125 -0.195312 14.765625 -0.34375 C 14.585938 -0.5 14.40625 -0.707031 14.21875 -0.96875 C 14.039062 -1.238281 13.835938 -1.578125 13.609375 -1.984375 L 7.203125 -13.546875 C 6.867188 -14.148438 6.53125 -14.78125 6.1875 -15.4375 C 5.84375 -16.09375 5.523438 -16.726562 5.234375 -17.34375 L 5.203125 -17.34375 C 5.222656 -16.59375 5.238281 -15.820312 5.25 -15.03125 C 5.257812 -14.25 5.265625 -13.46875 5.265625 -12.6875 L 5.265625 -0.40625 C 5.265625 -0.332031 5.242188 -0.257812 5.203125 -0.1875 C 5.160156 -0.125 5.085938 -0.0703125 4.984375 -0.03125 C 4.890625 0 4.757812 0.0234375 4.59375 0.046875 C 4.4375 0.078125 4.234375 0.09375 3.984375 0.09375 C 3.722656 0.09375 3.507812 0.078125 3.34375 0.046875 C 3.1875 0.0234375 3.0625 0 2.96875 -0.03125 C 2.875 -0.0703125 2.804688 -0.125 2.765625 -0.1875 C 2.722656 -0.257812 2.703125 -0.332031 2.703125 -0.40625 L 2.703125 -19.1875 C 2.703125 -19.601562 2.816406 -19.898438 3.046875 -20.078125 C 3.273438 -20.253906 3.53125 -20.34375 3.8125 -20.34375 L 5.09375 -20.34375 C 5.394531 -20.34375 5.644531 -20.316406 5.84375 -20.265625 C 6.050781 -20.210938 6.238281 -20.125 6.40625 -20 C 6.570312 -19.882812 6.726562 -19.71875 6.875 -19.5 C 7.03125 -19.289062 7.195312 -19.023438 7.375 -18.703125 L 12.3125 -9.765625 C 12.613281 -9.222656 12.90625 -8.691406 13.1875 -8.171875 C 13.46875 -7.648438 13.738281 -7.132812 14 -6.625 C 14.269531 -6.125 14.53125 -5.628906 14.78125 -5.140625 C 15.039062 -4.660156 15.296875 -4.171875 15.546875 -3.671875 L 15.5625 -3.671875 C 15.539062 -4.503906 15.523438 -5.367188 15.515625 -6.265625 C 15.515625 -7.160156 15.515625 -8.023438 15.515625 -8.859375 L 15.515625 -19.890625 C 15.515625 -19.960938 15.535156 -20.03125 15.578125 -20.09375 C 15.617188 -20.15625 15.6875 -20.207031 15.78125 -20.25 C 15.882812 -20.300781 16.019531 -20.335938 16.1875 -20.359375 C 16.351562 -20.378906 16.566406 -20.390625 16.828125 -20.390625 C 17.054688 -20.390625 17.253906 -20.378906 17.421875 -20.359375 C 17.585938 -20.335938 17.71875 -20.300781 17.8125 -20.25 C 17.90625 -20.207031 17.972656 -20.15625 18.015625 -20.09375 C 18.054688 -20.03125 18.078125 -19.960938 18.078125 -19.890625 Z M 18.078125 -1.109375 "/></g></g></g><g fill="#000000" fill-opacity="1"><g transform="translate(317.128204, 191.522895)"><g><path d="M 17.984375 -17.578125 C 17.984375 -17.378906 17.972656 -17.203125 17.953125 -17.046875 C 17.929688 -16.898438 17.898438 -16.773438 17.859375 -16.671875 C 17.816406 -16.578125 17.765625 -16.507812 17.703125 -16.46875 C 17.640625 -16.425781 17.570312 -16.40625 17.5 -16.40625 C 17.375 -16.40625 17.164062 -16.503906 16.875 -16.703125 C 16.582031 -16.898438 16.1875 -17.117188 15.6875 -17.359375 C 15.195312 -17.597656 14.609375 -17.816406 13.921875 -18.015625 C 13.234375 -18.210938 12.421875 -18.3125 11.484375 -18.3125 C 10.359375 -18.3125 9.347656 -18.109375 8.453125 -17.703125 C 7.566406 -17.296875 6.8125 -16.726562 6.1875 -16 C 5.570312 -15.28125 5.097656 -14.421875 4.765625 -13.421875 C 4.441406 -12.429688 4.28125 -11.351562 4.28125 -10.1875 C 4.28125 -8.882812 4.457031 -7.726562 4.8125 -6.71875 C 5.175781 -5.71875 5.675781 -4.867188 6.3125 -4.171875 C 6.957031 -3.484375 7.722656 -2.960938 8.609375 -2.609375 C 9.492188 -2.253906 10.46875 -2.078125 11.53125 -2.078125 C 12.15625 -2.078125 12.789062 -2.148438 13.4375 -2.296875 C 14.082031 -2.453125 14.679688 -2.679688 15.234375 -2.984375 L 15.234375 -8.921875 L 10.515625 -8.921875 C 10.335938 -8.921875 10.203125 -9.007812 10.109375 -9.1875 C 10.023438 -9.363281 9.984375 -9.640625 9.984375 -10.015625 C 9.984375 -10.210938 9.992188 -10.378906 10.015625 -10.515625 C 10.035156 -10.660156 10.066406 -10.773438 10.109375 -10.859375 C 10.160156 -10.953125 10.21875 -11.019531 10.28125 -11.0625 C 10.34375 -11.101562 10.421875 -11.125 10.515625 -11.125 L 16.984375 -11.125 C 17.097656 -11.125 17.210938 -11.101562 17.328125 -11.0625 C 17.441406 -11.019531 17.546875 -10.957031 17.640625 -10.875 C 17.734375 -10.789062 17.804688 -10.675781 17.859375 -10.53125 C 17.910156 -10.382812 17.9375 -10.21875 17.9375 -10.03125 L 17.9375 -2.28125 C 17.9375 -2.007812 17.890625 -1.773438 17.796875 -1.578125 C 17.703125 -1.378906 17.503906 -1.203125 17.203125 -1.046875 C 16.898438 -0.890625 16.503906 -0.722656 16.015625 -0.546875 C 15.535156 -0.367188 15.039062 -0.21875 14.53125 -0.09375 C 14.019531 0.03125 13.5 0.125 12.96875 0.1875 C 12.445312 0.25 11.929688 0.28125 11.421875 0.28125 C 9.847656 0.28125 8.441406 0.0390625 7.203125 -0.4375 C 5.960938 -0.925781 4.914062 -1.625 4.0625 -2.53125 C 3.207031 -3.4375 2.554688 -4.515625 2.109375 -5.765625 C 1.660156 -7.023438 1.4375 -8.429688 1.4375 -9.984375 C 1.4375 -11.597656 1.675781 -13.0625 2.15625 -14.375 C 2.644531 -15.6875 3.332031 -16.800781 4.21875 -17.71875 C 5.101562 -18.644531 6.164062 -19.359375 7.40625 -19.859375 C 8.65625 -20.367188 10.035156 -20.625 11.546875 -20.625 C 12.316406 -20.625 13.039062 -20.554688 13.71875 -20.421875 C 14.40625 -20.285156 15.015625 -20.125 15.546875 -19.9375 C 16.078125 -19.757812 16.519531 -19.5625 16.875 -19.34375 C 17.238281 -19.132812 17.488281 -18.960938 17.625 -18.828125 C 17.757812 -18.691406 17.851562 -18.53125 17.90625 -18.34375 C 17.957031 -18.164062 17.984375 -17.910156 17.984375 -17.578125 Z M 17.984375 -17.578125 "/></g></g></g></svg>